<svg width="88" height="77" viewBox="0 0 88 77" fill="none" xmlns="http://www.w3.org/2000/svg">
<path d="M26.8125 0.668123C26.3981 0.668123 26.0007 0.821496 25.7076 1.0945C25.4146 1.36751 25.25 1.73778 25.25 2.12387V21.0486H22.125V13.4001C22.125 11.1961 21.1094 9.3531 19.6094 8.1885C18.1094 7.02973 16.2 6.49111 14.3125 6.49111C12.425 6.49111 10.5156 7.02973 9.01562 8.19142C7.51562 9.3531 6.5 11.1961 6.5 13.4001V21.0486H1.8125C1.3981 21.0486 1.00067 21.2019 0.707646 21.4749C0.41462 21.7479 0.25 22.1182 0.25 22.5043V66.1767C0.25 66.5628 0.41462 66.933 0.707646 67.206C1.00067 67.479 1.3981 67.6324 1.8125 67.6324H25.25V74.882C25.25 75.2681 25.4146 75.6384 25.7076 75.9114C26.0007 76.1844 26.3981 76.3378 26.8125 76.3378H86.1875C86.6019 76.3378 86.9993 76.1844 87.2924 75.9114C87.5854 75.6384 87.75 75.2681 87.75 74.882V14.355C87.7514 14.2425 87.7389 14.1301 87.7125 14.0202C87.7452 13.7988 87.7228 13.5733 87.6469 13.3612C87.5711 13.1492 87.4438 12.9562 87.275 12.7974L74.7125 1.09902C74.5649 0.961825 74.3893 0.853533 74.1961 0.780529C74.0029 0.707525 73.796 0.671286 73.5875 0.673946C73.475 0.674345 73.3629 0.686059 73.2531 0.708884C73.1253 0.680032 72.994 0.666337 72.8625 0.668123H26.8125ZM28.375 3.57961H72.0469V13.8281C72.0469 14.2141 72.2115 14.5844 72.5045 14.8574C72.7975 15.1304 73.195 15.2838 73.6094 15.2838H84.625V73.4263H28.375V67.6324H48.6875C49.1019 67.6324 49.4993 67.479 49.7924 67.206C50.0854 66.933 50.25 66.5628 50.25 66.1767V22.5043C50.25 22.1182 50.0854 21.7479 49.7924 21.4749C49.4993 21.2019 49.1019 21.0486 48.6875 21.0486H28.375V3.57961ZM75.1719 5.64386L82.3969 12.3694H75.1719V5.64386ZM14.3125 9.39968C15.55 9.39968 16.7656 9.77818 17.6094 10.4304C18.4531 11.0854 19 11.9734 19 13.4001V30.8108C19 32.8634 18.0719 33.2506 17.4375 33.2506C16.8031 33.2506 15.875 32.8634 15.875 30.8108V16.5561C15.875 16.17 15.7104 15.7998 15.4174 15.5268C15.1243 15.2538 14.7269 15.1004 14.3125 15.1004C13.8981 15.1004 13.5007 15.2538 13.2076 15.5268C12.9146 15.7998 12.75 16.17 12.75 16.5561V21.0486H9.625V13.4001C9.625 11.9734 10.1719 11.0854 11.0156 10.4304C11.8594 9.77818 13.075 9.39968 14.3125 9.39968ZM34.625 12.3112V15.2227H62.75V12.3112H34.625ZM56.5 21.0456V23.9571H78.375V21.0456H56.5ZM3.375 23.9571H12.75V26.8541C9.31875 26.8541 6.5 29.4773 6.5 32.6771C6.5 35.8768 9.3125 38.5 12.75 38.5C14.4688 38.5 16.0406 37.8479 17.1688 36.7939C17.3875 36.5901 17.5719 36.3572 17.7563 36.1301C20.1094 35.9467 22.125 33.8125 22.125 30.8108V23.96H47.125V64.7209H3.375V23.9571ZM12.75 29.7656V30.8137C12.75 32.5926 13.4688 34.0542 14.5375 35.0033C14.0241 35.3713 13.3976 35.5764 12.75 35.5885C11.0063 35.5885 9.625 34.3046 9.625 32.6771C9.625 31.0495 11 29.7656 12.75 29.7656ZM56.5 29.783V32.6945H78.375V29.783H56.5ZM24.9219 40.3022C23.9344 40.3022 23.4531 40.7972 23.0156 41.2048L10.4062 54.2308C10.4125 54.2308 10.4125 54.2308 10.3813 54.2599C10.354 54.2881 10.3279 54.3172 10.3031 54.3473L10.2781 54.3764C10.1744 54.4842 10.0823 54.6012 10.0031 54.7258C9.75004 55.1588 9.61988 55.6448 9.625 56.1378C9.625 57.6489 10.975 58.895 12.5937 58.895H23.2406C23.3128 58.8949 23.3848 58.89 23.4562 58.8805C23.5312 58.8921 23.6125 58.8979 23.6875 58.8979C28.7656 58.8979 33.0406 58.9765 39.3312 58.8979C39.7424 58.8933 40.135 58.7379 40.424 58.4654C40.713 58.1929 40.875 57.8253 40.875 57.4422V46.2737C40.8762 45.9504 40.7619 45.6359 40.55 45.3799L38.6906 43.1293C38.663 43.0961 38.6338 43.064 38.6031 43.0332C38.0094 42.4276 37.1281 42.0433 36.3031 42.087C35.5751 42.1305 34.8927 42.4327 34.3969 42.9313C34.3262 43.0029 34.2634 43.081 34.2094 43.1642L31.9094 45.7846L27.4344 41.1728C27.1146 40.862 26.7238 40.6224 26.291 40.4716C25.8582 40.3209 25.3945 40.263 24.9344 40.3022H24.9219ZM10.3031 54.3415L10.3687 54.2628C10.3531 54.292 10.3406 54.292 10.3156 54.3211C10.3094 54.3211 10.3062 54.3356 10.3031 54.3415ZM25.2437 43.2545L29.9062 48.0585L22.95 55.9777H12.9187L25.2437 43.2545ZM36.4563 45.1994L37.75 46.7687V55.9864C33.6969 56.0214 30.3438 56.0156 26.9844 55.9864L36.4531 45.1994H36.4563Z" fill="white"/>
</svg>
