<svg width="8" height="12" viewBox="0 0 8 12" fill="none" xmlns="http://www.w3.org/2000/svg">
<path d="M3.75 11.0909V0.181818H4.44886V11.0909H3.75ZM5.26705 4C5.24432 3.71591 5.13778 3.49432 4.94744 3.33523C4.75994 3.17614 4.47443 3.09659 4.09091 3.09659C3.84659 3.09659 3.64631 3.12642 3.49006 3.18608C3.33665 3.2429 3.22301 3.32102 3.14915 3.42045C3.07528 3.51989 3.03693 3.63352 3.03409 3.76136C3.02841 3.86648 3.04688 3.96165 3.08949 4.04688C3.13494 4.12926 3.20597 4.20455 3.30256 4.27273C3.39915 4.33807 3.52273 4.39773 3.6733 4.4517C3.82386 4.50568 4.00284 4.55398 4.21023 4.59659L4.92614 4.75C5.40909 4.85227 5.82244 4.98722 6.16619 5.15483C6.50994 5.32244 6.79119 5.51989 7.00994 5.74716C7.22869 5.97159 7.3892 6.22443 7.49148 6.50568C7.59659 6.78693 7.65057 7.09375 7.65341 7.42614C7.65057 8 7.5071 8.4858 7.22301 8.88352C6.93892 9.28125 6.53267 9.58381 6.00426 9.79119C5.47869 9.99858 4.84659 10.1023 4.10795 10.1023C3.34943 10.1023 2.6875 9.99006 2.12216 9.76562C1.55966 9.54119 1.12216 9.19602 0.809659 8.73011C0.5 8.26136 0.34375 7.66193 0.340909 6.93182H2.59091C2.60511 7.19886 2.67188 7.4233 2.79119 7.60511C2.91051 7.78693 3.07813 7.92472 3.29403 8.01847C3.51278 8.11222 3.77273 8.15909 4.07386 8.15909C4.3267 8.15909 4.53835 8.12784 4.70881 8.06534C4.87926 8.00284 5.00852 7.91619 5.09659 7.8054C5.18466 7.6946 5.23011 7.56818 5.23295 7.42614C5.23011 7.29261 5.18608 7.17614 5.10085 7.0767C5.01847 6.97443 4.8821 6.88352 4.69176 6.80398C4.50142 6.72159 4.24432 6.64489 3.92045 6.57386L3.05114 6.38636C2.27841 6.21875 1.66903 5.93892 1.22301 5.54688C0.77983 5.15199 0.559659 4.61364 0.5625 3.93182C0.559659 3.37784 0.707386 2.89347 1.00568 2.47869C1.30682 2.06108 1.72301 1.7358 2.25426 1.50284C2.78835 1.26989 3.40057 1.15341 4.09091 1.15341C4.79545 1.15341 5.40483 1.27131 5.91903 1.5071C6.43324 1.7429 6.82955 2.07528 7.10795 2.50426C7.3892 2.9304 7.53125 3.42898 7.53409 4H5.26705Z" fill="black"/>
</svg>
