<svg width="12" height="11" viewBox="0 0 12 11" fill="none" xmlns="http://www.w3.org/2000/svg">
<mask id="path-1-inside-1_6800_42032" fill="white">
<path d="M11.5 0.5V3.5C11.5 3.63261 11.4473 3.75979 11.3536 3.85355C11.2598 3.94732 11.1326 4 11 4C10.8674 4 10.7402 3.94732 10.6464 3.85355C10.5527 3.75979 10.5 3.63261 10.5 3.5V1.70687L7.35375 4.85375C7.25993 4.94757 7.13268 5.00028 7 5.00028C6.86732 5.00028 6.74007 4.94757 6.64625 4.85375C6.55243 4.75993 6.49972 4.63268 6.49972 4.5C6.49972 4.36732 6.55243 4.24007 6.64625 4.14625L9.79313 1H8C7.86739 1 7.74021 0.947321 7.64645 0.853553C7.55268 0.759785 7.5 0.632608 7.5 0.5C7.5 0.367392 7.55268 0.240215 7.64645 0.146447C7.74021 0.0526785 7.86739 0 8 0H11C11.1326 0 11.2598 0.0526785 11.3536 0.146447C11.4473 0.240215 11.5 0.367392 11.5 0.5ZM4.64625 6.14625L1.5 9.29313V7.5C1.5 7.36739 1.44732 7.24021 1.35355 7.14645C1.25979 7.05268 1.13261 7 1 7C0.867392 7 0.740215 7.05268 0.646447 7.14645C0.552679 7.24021 0.5 7.36739 0.5 7.5V10.5C0.5 10.6326 0.552679 10.7598 0.646447 10.8536C0.740215 10.9473 0.867392 11 1 11H4C4.13261 11 4.25979 10.9473 4.35355 10.8536C4.44732 10.7598 4.5 10.6326 4.5 10.5C4.5 10.3674 4.44732 10.2402 4.35355 10.1464C4.25979 10.0527 4.13261 10 4 10H2.20687L5.35375 6.85375C5.44757 6.75993 5.50028 6.63268 5.50028 6.5C5.50028 6.36732 5.44757 6.24007 5.35375 6.14625C5.25993 6.05243 5.13268 5.99972 5 5.99972C4.86732 5.99972 4.74007 6.05243 4.64625 6.14625Z"/>
</mask>
<path d="M11.5 0.5V3.5C11.5 3.63261 11.4473 3.75979 11.3536 3.85355C11.2598 3.94732 11.1326 4 11 4C10.8674 4 10.7402 3.94732 10.6464 3.85355C10.5527 3.75979 10.5 3.63261 10.5 3.5V1.70687L7.35375 4.85375C7.25993 4.94757 7.13268 5.00028 7 5.00028C6.86732 5.00028 6.74007 4.94757 6.64625 4.85375C6.55243 4.75993 6.49972 4.63268 6.49972 4.5C6.49972 4.36732 6.55243 4.24007 6.64625 4.14625L9.79313 1H8C7.86739 1 7.74021 0.947321 7.64645 0.853553C7.55268 0.759785 7.5 0.632608 7.5 0.5C7.5 0.367392 7.55268 0.240215 7.64645 0.146447C7.74021 0.0526785 7.86739 0 8 0H11C11.1326 0 11.2598 0.0526785 11.3536 0.146447C11.4473 0.240215 11.5 0.367392 11.5 0.5ZM4.64625 6.14625L1.5 9.29313V7.5C1.5 7.36739 1.44732 7.24021 1.35355 7.14645C1.25979 7.05268 1.13261 7 1 7C0.867392 7 0.740215 7.05268 0.646447 7.14645C0.552679 7.24021 0.5 7.36739 0.5 7.5V10.5C0.5 10.6326 0.552679 10.7598 0.646447 10.8536C0.740215 10.9473 0.867392 11 1 11H4C4.13261 11 4.25979 10.9473 4.35355 10.8536C4.44732 10.7598 4.5 10.6326 4.5 10.5C4.5 10.3674 4.44732 10.2402 4.35355 10.1464C4.25979 10.0527 4.13261 10 4 10H2.20687L5.35375 6.85375C5.44757 6.75993 5.50028 6.63268 5.50028 6.5C5.50028 6.36732 5.44757 6.24007 5.35375 6.14625C5.25993 6.05243 5.13268 5.99972 5 5.99972C4.86732 5.99972 4.74007 6.05243 4.64625 6.14625Z" fill="black"/>
<path d="M10.5 1.70687H11.5V-0.707678L9.79282 0.999838L10.5 1.70687ZM7.35375 4.85375L8.06086 5.56086L8.06093 5.56079L7.35375 4.85375ZM7 5.00028V6.00028V5.00028ZM6.64625 4.14625L5.93921 3.43907L5.93914 3.43914L6.64625 4.14625ZM9.79313 1L10.5002 1.70718L12.2077 0H9.79313V1ZM8 0V1V0ZM4.64625 6.14625L3.93914 5.43914L3.93907 5.43921L4.64625 6.14625ZM1.5 9.29313H0.5V11.7077L2.20718 10.0002L1.5 9.29313ZM2.20687 10L1.49984 9.29282L-0.207678 11H2.20687V10ZM5.35375 6.85375L6.06079 7.56093L6.06086 7.56086L5.35375 6.85375ZM5.50028 6.5H6.50028H5.50028ZM10.5 0.5V3.5H12.5V0.5H10.5ZM10.5 3.5C10.5 3.36739 10.5527 3.24022 10.6464 3.14645L12.0607 4.56066C12.342 4.27935 12.5 3.89782 12.5 3.5H10.5ZM10.6464 3.14645C10.7402 3.05268 10.8674 3 11 3V5C11.3978 5 11.7794 4.84196 12.0607 4.56066L10.6464 3.14645ZM11 3C11.1326 3 11.2598 3.05268 11.3536 3.14645L9.93934 4.56066C10.2206 4.84196 10.6022 5 11 5V3ZM11.3536 3.14645C11.4473 3.24022 11.5 3.36739 11.5 3.5H9.5C9.5 3.89782 9.65803 4.27935 9.93934 4.56066L11.3536 3.14645ZM11.5 3.5V1.70687H9.5V3.5H11.5ZM9.79282 0.999838L6.64657 4.14671L8.06093 5.56079L11.2072 2.41391L9.79282 0.999838ZM6.64664 4.14664C6.74036 4.05293 6.86747 4.00028 7 4.00028V6.00028C7.3979 6.00028 7.7795 5.84222 8.06086 5.56086L6.64664 4.14664ZM7 4.00028C7.13253 4.00028 7.25964 4.05293 7.35336 4.14664L5.93914 5.56086C6.2205 5.84222 6.6021 6.00028 7 6.00028V4.00028ZM7.35336 4.14664C7.44707 4.24036 7.49972 4.36747 7.49972 4.5H5.49972C5.49972 4.8979 5.65779 5.2795 5.93914 5.56086L7.35336 4.14664ZM7.49972 4.5C7.49972 4.63253 7.44707 4.75964 7.35336 4.85336L5.93914 3.43914C5.65779 3.7205 5.49972 4.1021 5.49972 4.5H7.49972ZM7.35329 4.85343L10.5002 1.70718L9.08609 0.292823L5.93921 3.43907L7.35329 4.85343ZM9.79313 0H8V2H9.79313V0ZM8 0C8.13261 0 8.25978 0.0526781 8.35355 0.146447L6.93934 1.56066C7.22064 1.84196 7.60218 2 8 2V0ZM8.35355 0.146447C8.44732 0.240216 8.5 0.367393 8.5 0.5H6.5C6.5 0.897823 6.65803 1.27935 6.93934 1.56066L8.35355 0.146447ZM8.5 0.5C8.5 0.632607 8.44732 0.759784 8.35355 0.853553L6.93934 -0.56066C6.65803 -0.279354 6.5 0.102177 6.5 0.5H8.5ZM8.35355 0.853553C8.25978 0.947322 8.13261 1 8 1V-1C7.60218 -1 7.22064 -0.841965 6.93934 -0.56066L8.35355 0.853553ZM8 1H11V-1H8V1ZM11 1C10.8674 1 10.7402 0.947322 10.6464 0.853553L12.0607 -0.56066C11.7794 -0.841965 11.3978 -1 11 -1V1ZM10.6464 0.853553C10.5527 0.759784 10.5 0.632607 10.5 0.5H12.5C12.5 0.102177 12.342 -0.279354 12.0607 -0.56066L10.6464 0.853553ZM3.93907 5.43921L0.792823 8.58609L2.20718 10.0002L5.35343 6.85329L3.93907 5.43921ZM2.5 9.29313V7.5H0.5V9.29313H2.5ZM2.5 7.5C2.5 7.10218 2.34196 6.72064 2.06066 6.43934L0.646447 7.85355C0.552678 7.75978 0.5 7.63261 0.5 7.5H2.5ZM2.06066 6.43934C1.77935 6.15803 1.39782 6 1 6V8C0.867393 8 0.740216 7.94732 0.646447 7.85355L2.06066 6.43934ZM1 6C0.602177 6 0.220646 6.15803 -0.0606601 6.43934L1.35355 7.85355C1.25978 7.94732 1.13261 8 1 8V6ZM-0.0606601 6.43934C-0.341965 6.72064 -0.5 7.10218 -0.5 7.5H1.5C1.5 7.63261 1.44732 7.75978 1.35355 7.85355L-0.0606601 6.43934ZM-0.5 7.5V10.5H1.5V7.5H-0.5ZM-0.5 10.5C-0.5 10.8978 -0.341965 11.2794 -0.0606601 11.5607L1.35355 10.1464C1.44732 10.2402 1.5 10.3674 1.5 10.5H-0.5ZM-0.0606601 11.5607C0.220646 11.842 0.602177 12 1 12V10C1.13261 10 1.25978 10.0527 1.35355 10.1464L-0.0606601 11.5607ZM1 12H4V10H1V12ZM4 12C4.39782 12 4.77935 11.842 5.06066 11.5607L3.64645 10.1464C3.74022 10.0527 3.86739 10 4 10V12ZM5.06066 11.5607C5.34196 11.2794 5.5 10.8978 5.5 10.5H3.5C3.5 10.3674 3.55268 10.2402 3.64645 10.1464L5.06066 11.5607ZM5.5 10.5C5.5 10.1022 5.34196 9.72064 5.06066 9.43934L3.64645 10.8536C3.55268 10.7598 3.5 10.6326 3.5 10.5H5.5ZM5.06066 9.43934C4.77935 9.15803 4.39782 9 4 9V11C3.86739 11 3.74022 10.9473 3.64645 10.8536L5.06066 9.43934ZM4 9H2.20687V11H4V9ZM2.91391 10.7072L6.06079 7.56093L4.64671 6.14657L1.49984 9.29282L2.91391 10.7072ZM6.06086 7.56086C6.34222 7.2795 6.50028 6.8979 6.50028 6.5H4.50028C4.50028 6.36747 4.55293 6.24036 4.64664 6.14664L6.06086 7.56086ZM6.50028 6.5C6.50028 6.1021 6.34222 5.7205 6.06086 5.43914L4.64664 6.85336C4.55293 6.75964 4.50028 6.63253 4.50028 6.5H6.50028ZM6.06086 5.43914C5.7795 5.15779 5.3979 4.99972 5 4.99972V6.99972C4.86747 6.99972 4.74036 6.94707 4.64664 6.85336L6.06086 5.43914ZM5 4.99972C4.6021 4.99972 4.2205 5.15779 3.93914 5.43914L5.35336 6.85336C5.25964 6.94707 5.13253 6.99972 5 6.99972V4.99972Z" fill="white" mask="url(#path-1-inside-1_6800_42032)"/>
</svg>
