<svg width="9" height="11" viewBox="0 0 9 11" fill="none" xmlns="http://www.w3.org/2000/svg">
<path d="M4.57386 8.36364V7.90341C4.57386 7.53409 4.65341 7.19318 4.8125 6.88068C4.97443 6.56818 5.20881 6.31676 5.51562 6.12642C5.82244 5.93608 6.19602 5.84091 6.63636 5.84091C7.08807 5.84091 7.46733 5.93466 7.77415 6.12216C8.08381 6.30966 8.31818 6.55966 8.47727 6.87216C8.63636 7.18466 8.71591 7.52841 8.71591 7.90341V8.36364C8.71591 8.73295 8.63494 9.07386 8.47301 9.38636C8.31392 9.69886 8.07955 9.95028 7.76989 10.1406C7.46023 10.331 7.08239 10.4261 6.63636 10.4261C6.19034 10.4261 5.81392 10.331 5.5071 10.1406C5.20028 9.95028 4.96733 9.69886 4.80824 9.38636C4.65199 9.07386 4.57386 8.73295 4.57386 8.36364ZM6.05682 7.90341V8.36364C6.05682 8.52557 6.09659 8.68608 6.17614 8.84517C6.25852 9.00142 6.41193 9.07955 6.63636 9.07955C6.87216 9.07955 7.02699 9.00284 7.10085 8.84943C7.17756 8.69602 7.21591 8.53409 7.21591 8.36364V7.90341C7.21591 7.73295 7.1804 7.56818 7.10938 7.40909C7.03835 7.25 6.88068 7.17045 6.63636 7.17045C6.41193 7.17045 6.25852 7.25 6.17614 7.40909C6.09659 7.56818 6.05682 7.73295 6.05682 7.90341ZM0.00568184 3.36932V2.90909C0.00568184 2.53409 0.0866477 2.19034 0.24858 1.87784C0.413352 1.56534 0.649148 1.31534 0.955966 1.12784C1.26278 0.940341 1.63352 0.846591 2.06818 0.846591C2.51989 0.846591 2.89915 0.940341 3.20597 1.12784C3.51563 1.31534 3.75 1.56534 3.90909 1.87784C4.06818 2.19034 4.14773 2.53409 4.14773 2.90909V3.36932C4.14773 3.74432 4.06676 4.08665 3.90483 4.39631C3.74574 4.70597 3.51136 4.95312 3.2017 5.13778C2.89205 5.32244 2.5142 5.41477 2.06818 5.41477C1.62216 5.41477 1.24574 5.32102 0.93892 5.13352C0.632102 4.94602 0.399148 4.69744 0.240057 4.38778C0.0838068 4.07812 0.00568184 3.73864 0.00568184 3.36932ZM1.50568 2.90909V3.36932C1.50568 3.53977 1.54545 3.7017 1.625 3.85511C1.70455 4.00852 1.85227 4.08523 2.06818 4.08523C2.30398 4.08523 2.45881 4.00852 2.53267 3.85511C2.60938 3.7017 2.64773 3.53977 2.64773 3.36932V2.90909C2.64773 2.73864 2.61222 2.57386 2.54119 2.41477C2.47017 2.25568 2.3125 2.17614 2.06818 2.17614C1.84375 2.17614 1.69318 2.25852 1.61648 2.4233C1.54261 2.58523 1.50568 2.74716 1.50568 2.90909ZM0.730114 10L6.73011 1.27273H7.94034L1.94034 10H0.730114Z" fill="black"/>
</svg>
