<svg width="22" height="17" viewBox="0 0 22 17" fill="none" xmlns="http://www.w3.org/2000/svg">
<path d="M1.25 12.25L6.409 7.091C6.61793 6.88206 6.86597 6.71633 7.13896 6.60325C7.41194 6.49018 7.70452 6.43198 8 6.43198C8.29548 6.43198 8.58806 6.49018 8.86104 6.60325C9.13403 6.71633 9.38207 6.88206 9.591 7.091L14.75 12.25M13.25 10.75L14.659 9.341C14.8679 9.13206 15.116 8.96633 15.389 8.85325C15.6619 8.74018 15.9545 8.68198 16.25 8.68198C16.5455 8.68198 16.8381 8.74018 17.111 8.85325C17.384 8.96633 17.6321 9.13206 17.841 9.341L20.75 12.25M2.75 16H19.25C19.6478 16 20.0294 15.842 20.3107 15.5607C20.592 15.2794 20.75 14.8978 20.75 14.5V2.5C20.75 2.10218 20.592 1.72064 20.3107 1.43934C20.0294 1.15804 19.6478 1 19.25 1H2.75C2.35218 1 1.97064 1.15804 1.68934 1.43934C1.40804 1.72064 1.25 2.10218 1.25 2.5V14.5C1.25 14.8978 1.40804 15.2794 1.68934 15.5607C1.97064 15.842 2.35218 16 2.75 16ZM13.25 4.75H13.258V4.758H13.25V4.75ZM13.625 4.75C13.625 4.84946 13.5855 4.94484 13.5152 5.01517C13.4448 5.08549 13.3495 5.125 13.25 5.125C13.1505 5.125 13.0552 5.08549 12.9848 5.01517C12.9145 4.94484 12.875 4.84946 12.875 4.75C12.875 4.65054 12.9145 4.55516 12.9848 4.48484C13.0552 4.41451 13.1505 4.375 13.25 4.375C13.3495 4.375 13.4448 4.41451 13.5152 4.48484C13.5855 4.55516 13.625 4.65054 13.625 4.75Z" stroke="white" stroke-width="1.5" stroke-linecap="round" stroke-linejoin="round"/>
</svg>
